<?xml version="1.0" standalone="no"?><!DOCTYPE svg PUBLIC "-//W3C//DTD SVG 1.1//EN" "http://www.w3.org/Graphics/SVG/1.1/DTD/svg11.dtd"><svg t="1766125865871" class="icon" viewBox="0 0 1024 1024" version="1.1" xmlns="http://www.w3.org/2000/svg" p-id="8943" xmlns:xlink="http://www.w3.org/1999/xlink" width="200" height="200"><path d="M170.666667 46.545455h263.757575v574.060606H46.545455V170.666667a124.121212 124.121212 0 0 1 124.121212-124.121212z" fill="#C2F89D" p-id="8944"></path><path d="M46.545455 713.69697h387.878787v263.757575H170.666667a124.121212 124.121212 0 0 1-124.121212-124.121212v-139.636363zM527.515152 46.545455h325.818181a124.121212 124.121212 0 0 1 124.121212 124.121212v449.939394H527.515152V46.545455z" fill="#EDF1F4" p-id="8945"></path><path d="M527.515152 713.69697h449.939393v139.636363a124.121212 124.121212 0 0 1-124.121212 124.121212H527.515152V713.69697z" fill="#82E4FC" p-id="8946"></path><path d="M374.520242 662.605576L139.636364 530.866424 876.435394 155.151515l-140.846546 715.838061-284.284121-164.088243-22.434909 117.21697z" fill="#0085FE" p-id="8947"></path><path d="M832.837818 205.079273l-458.317576 457.541818 52.286061 162.27297 22.403879-119.404606z" fill="#0355ED" p-id="8948"></path><path d="M498.393212 733.975273l-71.571394 90.918788 22.388364-119.404606z" fill="#0E24C0" p-id="8949"></path></svg>